<?xml version="1.0" encoding="UTF-8"?>
<svg width="24px" height="24px" viewBox="0 0 24 24" version="1.1" xmlns="http://www.w3.org/2000/svg" xmlns:xlink="http://www.w3.org/1999/xlink">
    <!-- Generator: Sketch 52.5 (67469) - http://www.bohemiancoding.com/sketch -->
    <title>2 Atoms/Icons/Logo Copy 5</title>
    <desc>Created with Sketch.</desc>
    <g id="Screens" stroke="none" strokeWidth="1" fill="none" fillRule="evenodd">
        <g id="Desktop-L-Copy" transform="translate(-40.000000, -340.000000)" fill="#FFFFFF" fillRule="nonzero">
            <g id="Stacked-Group-2" transform="translate(40.000000, 212.000000)">
                <g id="2-Atoms/Icons/Socials/Facebook" transform="translate(0.000000, 128.000000)">
                    <path d="M21.978439,0 L1.99814634,0 C0.899414634,0 0,0.899414634 0,1.99814634 L0,21.9787317 C0,23.076878 0.899414634,23.9765854 1.99814634,23.9765854 L21.978439,23.9765854 C23.0771707,23.9765854 23.9765854,23.076878 23.9765854,21.9787317 L23.9765854,1.99814634 C23.9765854,0.899414634 23.0771707,0 21.978439,0 Z M21.978439,21.9787317 L13.986439,21.9787317 L13.986439,13.9861463 L18.9813659,13.9861463 L18.9813659,11.9882927 L13.986439,11.9882927 L13.986439,9.99014634 C13.986439,8.3345561 15.3288,6.99307317 16.9835122,6.99307317 L18.9813659,6.99307317 L18.9813659,4.99492683 L16.9835122,4.99492683 C14.2253268,4.99521951 11.9882927,7.23073171 11.9882927,9.99014634 L11.9882927,11.9882927 L9.99014634,11.9882927 L9.99014634,13.9861463 L11.9882927,13.9861463 L11.9882927,21.9787317 L1.99814634,21.9787317 L1.99814634,1.99814634 L21.978439,1.99814634 L21.978439,21.9787317 Z" id="Shape"></path>
                </g>
            </g>
        </g>
    </g>
</svg>