<?xml version="1.0" encoding="UTF-8"?>
<svg width="24px" height="24px" viewBox="0 0 24 24" version="1.1" xmlns="http://www.w3.org/2000/svg" xmlns:xlink="http://www.w3.org/1999/xlink">
    <!-- Generator: Sketch 52.5 (67469) - http://www.bohemiancoding.com/sketch -->
    <title>2 Atoms/Icons/Logo Copy 2</title>
    <desc>Created with Sketch.</desc>
    <g id="Screens" stroke="none" stroke-width="1" fill="none" fill-rule="evenodd">
        <g id="Desktop-L-Copy" transform="translate(-40.000000, -212.000000)" fill="#FFFFFF" fill-rule="nonzero">
            <g id="Stacked-Group-2" transform="translate(40.000000, 212.000000)">
                <g id="2-Atoms/Icons/Socials/Instagram">
                    <path d="M17.9827317,0 C21.2792195,0 23.976878,2.69765854 23.976878,5.99414634 L23.976878,17.9830244 C23.976878,21.2786341 21.2792195,23.9771707 17.9827317,23.9771707 L5.99443902,23.9771707 C2.69795122,23.9771707 0.000292682927,21.2786341 0.000292682927,17.9830244 L0.000292682927,5.99414634 C0.000292682927,2.69765854 2.69795122,0 5.99443902,0 L17.9827317,0 Z M21.9787317,17.9830244 L21.9787317,5.99414634 C21.9787317,3.7907122 20.1868098,1.99814634 17.9827317,1.99814634 L5.99443902,1.99814634 C3.79129756,1.99814634 1.99843902,3.7907122 1.99843902,5.99414634 L1.99843902,17.9830244 C1.99843902,20.1858732 3.79129756,21.9790244 5.99443902,21.9790244 L17.9827317,21.9790244 C20.1868098,21.9790244 21.9787317,20.1858732 21.9787317,17.9830244 Z M18.4832195,6.99307317 C17.6556006,6.99307317 16.9846829,6.32215549 16.9846829,5.49453659 C16.9846829,4.66691768 17.6556006,3.996 18.4832195,3.996 C19.3108384,3.996 19.9817561,4.66691768 19.9817561,5.49453659 C19.9817561,6.32215549 19.3108384,6.99307317 18.4832195,6.99307317 Z M11.9885854,5.99414634 C15.2988293,5.99414634 17.9827317,8.67740488 17.9827317,11.9882927 C17.9827317,15.2979512 15.2988293,17.9830244 11.9885854,17.9830244 C8.67740488,17.9830244 5.99443902,15.2979512 5.99443902,11.9882927 C5.99443902,8.67740488 8.67740488,5.99414634 11.9885854,5.99414634 Z M11.9885854,15.984878 C14.1953561,15.984878 15.9845854,14.1956488 15.9845854,11.9882927 C15.9845854,9.78093659 14.1953561,7.99229268 11.9885854,7.99229268 C9.78181463,7.99229268 7.99258537,9.78093659 7.99258537,11.9882927 C7.99258537,14.1956488 9.78181463,15.984878 11.9885854,15.984878 Z" id="Combined-Shape"></path>
                </g>
            </g>
        </g>
    </g>
</svg>