<?xml version="1.0" encoding="UTF-8"?>
<svg width="40px" height="39px" viewBox="0 0 40 39" version="1.1" xmlns="http://www.w3.org/2000/svg" xmlns:xlink="http://www.w3.org/1999/xlink">
    <!-- Generator: Sketch 52.5 (67469) - http://www.bohemiancoding.com/sketch -->
    <title>2 Atoms/Icons/Logo</title>
    <desc>Created with Sketch.</desc>
    <g id="Screens" stroke="none" stroke-width="1" fill="none" fill-rule="evenodd">
        <g id="Desktop-L-Copy" transform="translate(-32.000000, -52.000000)" fill="#FFFFFF" fill-rule="nonzero">
            <g id="2-Atoms/Icons/Logo" transform="translate(32.000000, 52.000000)">
                <path d="M19.9798578,36.6208067 C18.6449241,36.6208067 17.3304158,36.4725442 16.0565562,36.176019 C21.3954821,35.8159529 23.8829362,33.1684074 23.8829362,27.9368574 L23.8829362,20.227205 L23.8829362,18.0668078 L23.8829362,13.4494884 L23.8829362,12.5810935 C23.8829362,11.7126986 24.2874003,11.331452 25.1569981,11.331452 L26.8153009,11.331452 C27.543134,11.331452 27.8060356,11.0772877 27.8060356,10.399516 L27.8060356,10.0182694 C27.8060356,9.34049784 27.543134,9.08633344 26.8153009,9.08633344 L24.752534,9.08633344 C22.689565,9.08633344 21.4761727,10.399516 21.4761727,12.5599131 L21.4761727,13.4283081 L21.4761727,18.0456274 L21.4761727,20.2060246 L21.4761727,27.915677 C21.4761727,32.0882088 19.332513,34.1003434 14.6811761,34.1003434 C9.84783024,34.1003434 7.62327778,32.0670284 7.62327778,27.915677 L7.62327778,24.4420974 C7.62327778,22.3876021 6.49077834,21.2226821 4.54955297,21.2015017 L2.52723254,21.2015017 C2.4663607,20.6084515 2.42611652,20.0154013 2.42611652,19.4223511 C2.42611652,9.933548 10.292943,2.20271514 20.000081,2.20271514 C21.3346102,2.20271514 22.6491186,2.37215805 23.9029572,2.64750278 C18.5642335,3.00756897 16.0968004,5.65511447 16.0968004,10.8866644 L16.0968004,18.0456274 L16.0968004,20.2060246 L16.0968004,25.3952138 L16.0968004,25.5434763 L16.0968004,26.2636087 C16.0968004,27.1320036 15.6923363,27.5132502 14.8229407,27.5132502 L13.1644358,27.5132502 C12.4366026,27.5132502 12.1734987,27.7674146 12.1734987,28.4451862 L12.1734987,28.8264327 C12.1734987,29.5042044 12.4366026,29.7583687 13.1644358,29.7583687 L15.2274048,29.7583687 C17.2901717,29.7583687 18.5035639,28.4451862 18.5035639,26.284789 L18.5035639,25.5646566 L18.5035639,20.227205 L18.5035639,18.0668078 L18.5035639,10.9078447 C18.5035639,6.73531304 20.6472235,4.72317846 25.2985606,4.72317846 C30.1317041,4.72317846 32.3562566,6.7564934 32.3562566,10.9078447 L32.3562566,14.3814245 C32.3562566,16.4359198 33.4889582,17.6008398 35.4301836,17.6220202 L37.4525041,17.6220202 C37.5131737,18.2150703 37.5536201,18.8081206 37.5536201,19.4011707 C37.5536201,28.9111542 29.6665704,36.6208067 19.9798578,36.6208067 M39.13103,15.3557212 L39.0907858,15.3557212 L35.7942013,15.3557212 C34.9852731,15.3557212 34.7223715,15.1015568 34.7223715,14.3602441 L34.7223715,10.8866644 C34.7223715,7.5825276 33.7112113,5.33740902 31.6284234,4.02422644 C28.3724876,1.6308453 24.3480699,0.211760916 19.9798578,0.211760916 C9.18066672,0.211760916 0.383572893,8.83216904 0.383572893,19.4223511 C0.383572893,20.7990748 0.565581731,22.1969788 0.848504358,23.488981 L4.14508889,23.488981 C4.95401706,23.488981 5.19649327,23.7431454 5.19649327,24.4844581 L5.19649327,27.9580378 C5.19649327,31.2621746 6.18763251,33.5072932 8.29084576,34.8204758 C11.5467817,37.2138569 15.5711993,38.6543334 19.9594324,38.6543334 C30.7588257,38.6543334 39.5559195,30.0337135 39.5559195,19.4435314 C39.5963659,17.9820863 39.4343781,16.6900842 39.13103,15.3557212" id="Fill-1"></path>
            </g>
        </g>
    </g>
</svg>