<?xml version="1.0" encoding="UTF-8"?>
<svg width="24px" height="24px" viewBox="0 0 24 24" version="1.1" xmlns="http://www.w3.org/2000/svg" xmlns:xlink="http://www.w3.org/1999/xlink">
    <!-- Generator: Sketch 52.5 (67469) - http://www.bohemiancoding.com/sketch -->
    <title>2 Atoms/Icons/Logo Copy 3</title>
    <desc>Created with Sketch.</desc>
    <g id="Screens" stroke="none" stroke-width="1" fill="none" fill-rule="evenodd">
        <g id="Desktop-L-Copy" transform="translate(-40.000000, -276.000000)" fill="#FFFFFF" fill-rule="nonzero">
            <g id="Stacked-Group-2" transform="translate(40.000000, 212.000000)">
                <g id="2-Atoms/Icons/Socials/Messenger" transform="translate(0.000000, 64.000000)">
                    <path d="M11.9882927,1.0658141e-14 C18.6109463,1.0658141e-14 23.9765854,4.91912195 23.976761,10.9893659 C23.976761,17.0557463 18.611122,21.9787317 11.9884683,21.9787317 C10.495961,21.9787317 9.07352195,21.7171317 7.75633171,21.2606634 L1.38158049,23.9007805 C1.1454439,23.9981854 0.872370732,24.0062634 0.616741463,23.9007805 C0.107239024,23.6882341 -0.13457561,23.1047415 0.076097561,22.5955317 L2.24119024,17.3698537 C0.834965854,15.5689171 3.55271368e-15,13.3699317 3.55271368e-15,10.9893659 C3.55271368e-15,4.91912195 5.36686829,1.0658141e-14 11.9882927,1.0658141e-14 Z M11.9882927,19.9802927 C17.4965854,19.9802927 21.978439,15.9453073 21.978439,10.9887805 C21.978439,6.03073171 17.4965854,1.99756098 11.9882927,1.99756098 C6.47906341,1.99756098 1.99814634,6.03102439 1.99814634,10.9887805 C1.99814634,12.8350244 2.62606829,14.6164683 3.81559024,16.1401756 L4.53278049,17.057561 L2.84481951,21.1317659 L7.69258537,19.1240195 L8.40977561,19.3715707 C9.57354146,19.7752976 10.7774634,19.9802927 11.9882927,19.9802927 Z M16.7413463,7.99229268 L18.1541854,9.40483902 L13.5725268,13.9861463 L10.4040585,10.8176195 L7.23611707,13.9861463 L5.8224,12.5736 L10.4040585,7.99229268 L13.5725268,11.1598829 L16.7413463,7.99229268 Z" id="Combined-Shape"></path>
                </g>
            </g>
        </g>
    </g>
</svg>