<?xml version="1.0" encoding="UTF-8"?>
<svg width="24px" height="24px" viewBox="0 0 24 24" version="1.1" xmlns="http://www.w3.org/2000/svg" xmlns:xlink="http://www.w3.org/1999/xlink">
    <!-- Generator: Sketch 52.5 (67469) - http://www.bohemiancoding.com/sketch -->
    <title>2 Atoms/Icons/Logo Copy 4</title>
    <desc>Created with Sketch.</desc>
    <g id="Screens" stroke="none" stroke-width="1" fill="none" fill-rule="evenodd">
        <g id="Desktop-L-Copy" transform="translate(-40.000000, -404.000000)" fill="#FFFFFF" fill-rule="nonzero">
            <g id="Stacked-Group-2" transform="translate(40.000000, 212.000000)">
                <g id="2-Atoms/Icons/Socials/Whatsapp" transform="translate(0.000000, 192.000000)">
                    <path d="M11.9885854,0 C18.6082537,0 23.9768195,5.36628293 23.9768195,11.9868293 C23.9768195,18.6073756 18.6081366,23.9772293 11.9885268,23.9772293 C9.65080976,23.9772293 7.47734634,23.2962732 5.63385366,22.139122 L1.38193171,23.9010732 C1.14579512,23.998478 0.872721951,24.0065561 0.617092683,23.9010732 C0.107590244,23.6885268 -0.13422439,23.1050341 0.0764487805,22.5958244 L1.83752195,18.3438439 C0.679434146,16.5000585 0.000292682927,14.3244878 0.000292682927,11.9867707 C0.000292682927,5.36628293 5.36803902,0 11.9885854,0 Z M11.9885854,21.9790244 C17.4969366,21.9790244 21.9787317,17.495122 21.9787317,11.9867707 C21.9787317,6.47877073 17.4969366,1.9979122 11.9885854,1.9979122 C6.48023415,1.9979122 1.99843902,6.47912195 1.99843902,11.9868293 C1.99843902,13.8540293 2.52679024,15.6846439 3.52993171,17.2805854 L4.07812683,18.1548293 L2.8451122,21.1324098 L5.82087805,19.8993951 L6.69482927,20.4475317 C8.29112195,21.4482146 10.1220293,21.9790244 11.9885854,21.9790244 Z M14.1066146,12.6934829 L17.6411122,14.8141463 L16.2268098,16.224878 C15.4481561,17.0052878 14.1818927,17.0052878 13.4002537,16.224878 C13.4002537,16.224878 7.75047805,10.5742244 7.7513561,10.5742244 C6.97094634,9.79381463 6.97094634,8.52930732 7.7513561,7.74889756 L9.16325854,6.33670244 L11.2821659,9.86786341 L10.2227122,10.9273171 L13.047161,13.7529366 L14.1066146,12.6934829 Z" id="Combined-Shape"></path>
                </g>
            </g>
        </g>
    </g>
</svg>